<?xml version="1.0" encoding="UTF-8" standalone="no"?>
<svg
   xmlns:dc="http://purl.org/dc/elements/1.1/"
   xmlns:cc="http://creativecommons.org/ns#"
   xmlns:rdf="http://www.w3.org/1999/02/22-rdf-syntax-ns#"
   xmlns:svg="http://www.w3.org/2000/svg"
   xmlns="http://www.w3.org/2000/svg"
   xmlns:sodipodi="http://sodipodi.sourceforge.net/DTD/sodipodi-0.dtd"
   xmlns:inkscape="http://www.inkscape.org/namespaces/inkscape"
   width="520.83929"
   height="281.53232"
   viewBox="0 0 520.83929 281.53232"
   version="1.1"
   preserveAspectRatio="xMidYMid"
   id="svg6"
   sodipodi:docname="koa.svg"
   inkscape:version="1.0.1 (3bc2e813f5, 2020-09-07)">
  <metadata
     id="metadata12">
    <rdf:RDF>
      <cc:Work
         rdf:about="">
        <dc:format>image/svg+xml</dc:format>
        <dc:type
           rdf:resource="http://purl.org/dc/dcmitype/StillImage" />
      </cc:Work>
    </rdf:RDF>
  </metadata>
  <defs
     id="defs10" />
  <sodipodi:namedview
     pagecolor="#ffffff"
     bordercolor="#666666"
     borderopacity="1"
     objecttolerance="10"
     gridtolerance="10"
     guidetolerance="10"
     inkscape:pageopacity="0"
     inkscape:pageshadow="2"
     inkscape:window-width="2560"
     inkscape:window-height="1343"
     id="namedview8"
     showgrid="false"
     inkscape:zoom="2.5683594"
     inkscape:cx="263.71098"
     inkscape:cy="141.34472"
     inkscape:window-x="1920"
     inkscape:window-y="27"
     inkscape:window-maximized="1"
     inkscape:current-layer="layer1" />
  <g
     inkscape:groupmode="layer"
     id="layer1"
     inkscape:label="Layer 1"
     transform="translate(7.710978,3.8447161)">
    <rect
       style="fill:#ffffff;stroke:none;stroke-width:11.164"
       id="rect841"
       width="520.83929"
       height="281.53232"
       x="-7.710978"
       y="-3.8447161" />
  </g>
  <g
     inkscape:groupmode="layer"
     id="layer2"
     inkscape:label="Layer 2"
     transform="translate(7.710978,3.8447161)">
    <g
       id="g4">
      <path
         d="M 25.652388,0 V 182.49841 L 106.27418,91.61567 h 3.66462 L 50.205387,159.0448 128.99486,274.84701 h -25.65238 l -67.7956,-99.67785 -9.894492,11.36034 v 88.31751 H 0 V 0 Z M 153.01007,184.72964 c 0,-59.45322 38.36158,-92.561896 88.30402,-92.561896 45.96152,0 85.40881,23.496486 85.40881,88.289816 0,59.45322 -38.36159,92.5619 -88.30402,92.5619 -45.96152,0 -85.40881,-23.49649 -85.40881,-88.28982 z m 23.79627,0.0114 c 0,62.63451 27.49716,85.89876 61.59363,85.89876 35.92961,0 64.52665,-32.92786 64.52665,-90.1937 0,-62.63451 -27.49715,-85.898758 -61.59362,-85.898758 -35.92962,0 -64.52666,32.927858 -64.52666,90.193698 z m 324.18403,87.21606 c -43.32822,0 -41.19732,-25.27652 -41.19732,-25.27652 v -4.9841 c -7.10299,12.81626 -20.59866,31.68465 -55.75844,31.68465 -41.55247,0 -48.65546,-26.34454 -50.78635,-40.58483 -3.5515,-23.85249 4.97209,-41.65286 68.18866,-45.92495 15.98172,-1.42403 34.09434,-0.71201 38.35613,-0.356 v -59.09722 c 0,0 3.90664,-32.040654 -37.29068,-32.040654 -22.01925,0 -49.36575,9.256194 -58.24448,14.240294 l -1.4206,-2.49205 c 4.61694,-2.13605 26.28105,-14.596303 64.28202,-14.596303 51.49666,0 57.53419,22.784463 57.53419,34.888713 v 119.26245 c 0,23.14048 16.33687,22.42846 16.33687,22.42846 H 512 v 2.84806 z m -90.74172,-0.9556 c 26.6267,0 48.34848,-24.2373 49.39954,-38.70733 v -43.77185 c -4.20422,-0.36175 -20.67073,-1.80875 -38.1883,0.36175 -37.13724,4.34101 -44.49462,17.36404 -42.39252,43.77185 1.40141,17.72579 6.65668,38.34558 31.18128,38.34558 z"
         fill="#000000"
         fill-rule="nonzero"
         id="path2" />
    </g>
  </g>
</svg>
